<svg xmlns="http://www.w3.org/2000/svg" viewBox="0 0 500 500"><g id="freepik--Device--inject-130"><g id="freepik--Laptop--inject-130"><path d="M142.82,408c0,2.75,2.06,4.5,4.59,6l103.8,59.93a10.15,10.15,0,0,0,9.17,0l167.45-96.68c2.54-1.47,4.59-3.35,4.59-6.09s-2.05-4.44-4.59-5.9L324,305.26a10.09,10.09,0,0,0-9.17,0L147.41,401.94C144.87,403.4,142.82,405.22,142.82,408Z" style="fill:#37474f"></path><path d="M147.41,407.23l103.8,59.93a10.15,10.15,0,0,0,9.17,0l167.45-96.68c2.54-1.46,2.54-3.83,0-5.29L324,305.26a10.09,10.09,0,0,0-9.17,0L147.41,401.94C144.87,403.4,144.87,405.77,147.41,407.23Z" style="fill:#455a64"></path><path d="M255.8,468.27V475a9.38,9.38,0,0,1-4.59-1.09l-103.8-59.93c-2.53-1.46-4.59-3.22-4.59-6,0-2.57,1.85-4.36,4.23-5.82-2,1.39-2,3.73.36,5.09l103.8,59.93A9.28,9.28,0,0,0,255.8,468.27Z" style="fill:#263238"></path><path d="M140.83,402.64c-2-.92-2.56-2.52-2.75-5.33l-9-131.65a9.12,9.12,0,0,1,4.24-7.74l167.46-96.68c2.53-1.46,4.38-2.26,6.72-.66s2.39,2.48,2.58,5.3l9,131.64a9.12,9.12,0,0,1-4.24,7.75L147.39,402C144.86,403.41,143.42,403.84,140.83,402.64Z" style="fill:#37474f"></path><path d="M310.09,165.87c-.2-2.8-2.41-3.9-4.94-2.44L137.69,260.11a8.65,8.65,0,0,0-3.13,3.37l-4.37-2.2h0a8.89,8.89,0,0,1,3.14-3.37l167.45-96.67c2.54-1.47,4.4-2.27,6.73-.66S309.89,163.07,310.09,165.87Z" style="fill:#455a64"></path><path d="M147.05,402.14c-2.31,1.36-3.77,1.53-6.22.5-1.87-.79-2.55-2.52-2.75-5.33l-9-131.65a8,8,0,0,1,1.1-4.37l4.37,2.18h0a8.15,8.15,0,0,0-1.1,4.37l9,131.65C142.63,402.11,144.89,403.42,147.05,402.14Z" style="fill:#263238"></path><path d="M140.6,265.14l161.15-93c1.52-.88,2.85-.22,3,1.47l8.4,122.81a5.51,5.51,0,0,1-2.54,4.65l-161.15,93c-1.52.88-2.85.22-3-1.47l-8.4-122.81A5.46,5.46,0,0,1,140.6,265.14Z"></path><path d="M140.6,265.14a5.46,5.46,0,0,0-2.54,4.65l8.26,120.77,159.3-91.95a5.5,5.5,0,0,0,2.55-4.65l-8.26-120.77Z" style="fill:#4DBC1B"></path><path d="M140.6,265.14a5.46,5.46,0,0,0-2.54,4.65l8.26,120.77,159.3-91.95a5.5,5.5,0,0,0,2.55-4.65l-8.26-120.77Z" style="fill:#fff;opacity:0.2"></path><path d="M161.57,402.71l153.89-88.84a4.77,4.77,0,0,1,4.32,0l5.6,3.14a1.32,1.32,0,0,1,0,2.5l-153.9,88.83a4.79,4.79,0,0,1-4.33,0l-5.58-3.13A1.32,1.32,0,0,1,161.57,402.71Z" style="fill:#263238"></path><path d="M176.68,411.63l153.89-88.85a4.4,4.4,0,0,1,3.95-.21l40.05,23.12c1,.57.82,1.6-.37,2.28L220.49,436.7a4.41,4.41,0,0,1-4,.22l-40.23-23C175.32,413.34,175.49,412.32,176.68,411.63Z" style="fill:#263238"></path><path d="M310,360.1l4.82-2.78c.21-.12.23-.3,0-.41l-4.61-2.66a.79.79,0,0,0-.7,0l-4.81,2.78c-.21.12-.23.3,0,.4l4.6,2.66A.75.75,0,0,0,310,360.1Zm-7-9.63-4.82,2.79c-.2.11-.22.3,0,.4l4.61,2.66a.76.76,0,0,0,.7,0l4.82-2.78c.2-.12.22-.3,0-.41l-4.61-2.66A.82.82,0,0,0,303,350.47Zm-15.57,9-8.15,4.71c-.2.12-.22.3,0,.4l4.61,2.66a.76.76,0,0,0,.7,0l8.15-4.71c.21-.12.22-.3,0-.4l-4.61-2.66A.76.76,0,0,0,287.42,359.46Zm8.53-4.92-4.82,2.78c-.2.12-.22.3,0,.41l4.61,2.66a.79.79,0,0,0,.7,0l4.82-2.78c.2-.12.22-.3,0-.4l-4.61-2.66A.76.76,0,0,0,296,354.54Zm-18.9,10.91-4.82,2.78c-.21.12-.22.3,0,.41l4.61,2.66a.82.82,0,0,0,.7,0l4.81-2.79c.21-.11.23-.29.05-.4l-4.61-2.66A.75.75,0,0,0,277.05,365.45ZM270,369.52l-4.81,2.78c-.21.12-.23.3-.05.4l4.61,2.67a.79.79,0,0,0,.7,0l4.82-2.78c.21-.12.23-.3,0-.4l-4.61-2.67A.79.79,0,0,0,270,369.52Zm18.07,10.86,4.82-2.78c.2-.12.22-.3,0-.41l-4.61-2.66a.82.82,0,0,0-.7,0l-4.82,2.79c-.2.11-.22.29,0,.4l4.61,2.66A.76.76,0,0,0,288.07,380.38Zm-7,4.06,4.82-2.78c.2-.12.22-.3,0-.4l-4.61-2.66a.76.76,0,0,0-.7,0l-4.82,2.78c-.2.12-.22.3,0,.41l4.61,2.66A.79.79,0,0,0,281,384.44Zm-7,4.07,4.82-2.78c.2-.12.22-.3,0-.41l-4.61-2.66a.79.79,0,0,0-.7,0l-4.82,2.78c-.2.12-.22.3,0,.4l4.61,2.66A.76.76,0,0,0,274,388.51Zm-7,4.06,4.81-2.78c.21-.12.23-.3.05-.4l-4.61-2.66a.75.75,0,0,0-.7,0l-4.82,2.78c-.21.12-.23.3,0,.41l4.61,2.66A.79.79,0,0,0,267,392.57Zm36-28.41,4.82-2.78c.21-.11.22-.3,0-.4l-4.61-2.66a.76.76,0,0,0-.7,0l-4.81,2.78c-.21.12-.23.3-.05.41l4.61,2.66A.79.79,0,0,0,303,364.16Zm-7.87,12.15,10.75-6.2c.21-.12.22-.3,0-.41l-11.19-6.46a.79.79,0,0,0-.7,0l-5.56,3.21c-.21.12-.22.3,0,.41l5.92,3.42c.19.1.17.28,0,.4l-4.44,2.57c-.21.12-.23.3-.05.4l4.61,2.67A.79.79,0,0,0,295.11,376.31ZM263,373.58l-4.82,2.79c-.2.11-.22.29,0,.4l4.61,2.66a.76.76,0,0,0,.7,0l4.82-2.78c.21-.12.22-.3,0-.41l-4.61-2.66A.79.79,0,0,0,263,373.58Zm-7,4.07-4.82,2.78c-.2.12-.22.3,0,.41l4.61,2.66a.79.79,0,0,0,.7,0l4.82-2.78c.2-.12.22-.3,0-.4l-4.61-2.66A.76.76,0,0,0,255.92,377.65Zm-39,43.41a.79.79,0,0,0,.7,0l4.82-2.78c.21-.12.22-.3,0-.4l-4.61-2.66a.76.76,0,0,0-.7,0L212.39,418c-.21.12-.23.3,0,.41Zm-17.36-10.89L194.77,413c-.21.11-.23.3,0,.4l4.61,2.66a.76.76,0,0,0,.7,0l4.81-2.78c.21-.12.23-.3.05-.41l-4.61-2.66A.82.82,0,0,0,199.59,410.17Zm8.93,8.16a.79.79,0,0,0,.7,0l4.81-2.78c.21-.12.23-.3,0-.4l-4.6-2.67a.79.79,0,0,0-.7,0L204,415.26c-.21.12-.23.3,0,.4Zm19.42,4.37,4.82-2.79c.21-.11.23-.3,0-.4l-4.61-2.66a.76.76,0,0,0-.7,0l-4.81,2.78c-.21.12-.23.3,0,.41l4.6,2.66A.82.82,0,0,0,227.94,422.7Zm-7.74,4.08a.76.76,0,0,0,.7,0l4.82-2.78c.21-.12.22-.3,0-.4l-4.61-2.67a.79.79,0,0,0-.7,0l-4.82,2.78c-.2.12-.22.3,0,.4Zm-13.57-20.67-4.82,2.78c-.21.12-.22.3,0,.4l4.61,2.67a.79.79,0,0,0,.7,0l4.82-2.78c.2-.12.22-.3,0-.4l-4.61-2.67A.79.79,0,0,0,206.63,406.11Zm35.21-20.33L237,388.56c-.21.12-.22.3,0,.41l4.61,2.66a.79.79,0,0,0,.7,0l4.82-2.78c.2-.12.22-.3,0-.4l-4.61-2.66A.75.75,0,0,0,241.84,385.78ZM213.67,402l-4.82,2.78c-.2.12-.22.3,0,.41l4.61,2.66a.79.79,0,0,0,.7,0l4.82-2.79c.2-.11.22-.29,0-.4L214.37,402A.76.76,0,0,0,213.67,402Zm35.21-20.33-4.82,2.79c-.2.11-.22.3,0,.4l4.61,2.66a.76.76,0,0,0,.7,0l4.82-2.78c.2-.12.22-.3,0-.41l-4.61-2.66A.82.82,0,0,0,248.88,381.71Zm-14.08,8.14L230,392.63c-.21.12-.23.3,0,.4l4.61,2.66a.76.76,0,0,0,.7,0l4.81-2.78c.21-.12.23-.3,0-.41l-4.61-2.66A.77.77,0,0,0,234.8,389.85Zm-7.05,4.06-4.81,2.78c-.21.12-.23.3-.05.41l4.61,2.66a.79.79,0,0,0,.7,0L233,397c.21-.11.22-.3,0-.4l-4.61-2.66A.76.76,0,0,0,227.75,393.91Zm-7,4.07-4.82,2.78c-.2.12-.22.3,0,.4l4.61,2.66a.76.76,0,0,0,.7,0L226,401c.2-.12.22-.3,0-.41L221.41,398A.79.79,0,0,0,220.71,398Zm32.15,2.73,4.82-2.79c.21-.11.22-.3,0-.4l-4.61-2.66a.76.76,0,0,0-.7,0l-4.82,2.78c-.2.12-.22.3,0,.41l4.61,2.66A.82.82,0,0,0,252.86,400.71Zm65.7-59.22-4.82,2.78c-.21.12-.23.3,0,.4l4.61,2.66a.76.76,0,0,0,.7,0l4.81-2.78c.21-.12.23-.3.05-.41l-4.61-2.66A.79.79,0,0,0,318.56,341.49ZM310,346.41l-4.82,2.78c-.2.12-.22.3,0,.4l4.61,2.67a.79.79,0,0,0,.7,0l4.82-2.78c.2-.12.22-.3,0-.4l-4.61-2.67A.79.79,0,0,0,310,346.41Zm15.57-9-4.82,2.78c-.2.12-.22.3,0,.41l4.61,2.66a.79.79,0,0,0,.7,0l4.82-2.78c.2-.12.22-.3,0-.4l-4.61-2.66A.76.76,0,0,0,325.6,337.42Zm-38.92,36.16,4.81-2.78c.21-.12.23-.3,0-.41l-4.6-2.66a.79.79,0,0,0-.7,0l-4.82,2.78c-.21.12-.23.3,0,.4L286,373.6A.76.76,0,0,0,286.68,373.58Zm46.66-40.25a.79.79,0,0,0-.7,0l-4.82,2.78c-.2.12-.22.3,0,.4l4.61,2.66a.76.76,0,0,0,.7,0l4.82-2.78c.2-.12.22-.3,0-.41ZM259.9,396.64l4.82-2.78c.21-.12.23-.3,0-.41l-4.61-2.66a.79.79,0,0,0-.7,0l-4.81,2.78c-.21.12-.23.3,0,.4l4.6,2.66A.75.75,0,0,0,259.9,396.64Zm86.36-49.86,4.82-2.78c.2-.12.22-.3,0-.4l-4.61-2.66a.76.76,0,0,0-.7,0L341,343.74c-.2.12-.22.3,0,.41l4.61,2.66A.79.79,0,0,0,346.26,346.78Zm-13.63.27,4.82-2.79c.21-.11.22-.29,0-.4l-4.61-2.66a.79.79,0,0,0-.7,0L327.36,344c-.2.12-.22.3,0,.41l4.61,2.66A.79.79,0,0,0,332.63,347.05Zm7.29-9.92a.79.79,0,0,0-.7,0l-4.81,2.78c-.21.12-.23.3,0,.4L339,343a.75.75,0,0,0,.7,0l4.82-2.78c.21-.12.23-.3,0-.4Zm1.49-.85,11.19,6.46a.76.76,0,0,0,.7,0l4.82-2.78c.2-.12.22-.3,0-.41L347,333.07a.75.75,0,0,0-.7,0l-4.82,2.78C341.24,336,341.23,336.17,341.41,336.28Zm-16.27,9-4.82,2.78c-.2.12-.22.3,0,.4l4.61,2.67a.79.79,0,0,0,.7,0l4.82-2.78c.2-.12.22-.3,0-.4l-4.61-2.67A.79.79,0,0,0,325.14,345.29Zm-53,30.6-4.82,2.78c-.2.12-.22.3,0,.4l4.61,2.66a.76.76,0,0,0,.7,0l4.82-2.78c.2-.12.22-.3,0-.4l-4.61-2.67A.79.79,0,0,0,272.14,375.89Zm66.38-25a.76.76,0,0,0,.7,0l4.82-2.78c.2-.12.22-.3,0-.41L339.47,345a.82.82,0,0,0-.7,0L334,347.81c-.2.11-.22.3,0,.4Zm-59.34,20.95-4.81,2.78c-.21.12-.23.3-.05.41l4.61,2.66a.82.82,0,0,0,.7,0l4.82-2.79c.21-.11.22-.3,0-.4l-4.61-2.66A.76.76,0,0,0,279.18,371.82ZM224,417a.76.76,0,0,0,.7,0l4.81-2.78c.21-.12.23-.3,0-.41l-4.61-2.66a.8.8,0,0,0-.69,0l-4.82,2.79c-.21.11-.23.3,0,.4Zm-8.19-8.58L211,411.19c-.21.12-.22.3,0,.41l4.61,2.66a.82.82,0,0,0,.7,0l4.82-2.79c.2-.11.22-.29,0-.4l-4.61-2.66A.76.76,0,0,0,215.81,408.41Zm15.93,4.49,4.81-2.78c.21-.12.23-.3,0-.4L232,407.06a.76.76,0,0,0-.7,0l-4.82,2.78c-.21.12-.22.3,0,.4l4.61,2.67A.79.79,0,0,0,231.74,412.9Zm7-4.06,4.82-2.78c.2-.12.22-.3,0-.41L239,403a.79.79,0,0,0-.7,0l-4.82,2.79c-.2.11-.22.29,0,.4l4.61,2.66A.79.79,0,0,0,238.78,408.84Zm7-4.07,4.82-2.78c.2-.12.22-.3,0-.41l-4.61-2.66a.79.79,0,0,0-.7,0l-4.82,2.78c-.2.12-.22.3,0,.4l4.61,2.66A.76.76,0,0,0,245.82,404.77Zm-23-.42L218,407.13c-.2.12-.22.3,0,.4l4.61,2.66a.76.76,0,0,0,.7,0l4.82-2.78c.2-.12.22-.3,0-.41l-4.61-2.66A.79.79,0,0,0,222.85,404.35Zm7-4.07-4.82,2.78c-.2.12-.22.3,0,.41l4.61,2.66a.79.79,0,0,0,.7,0l4.82-2.78c.2-.12.22-.3,0-.4l-4.61-2.66A.76.76,0,0,0,229.89,400.28ZM258.06,384l-4.82,2.78c-.2.12-.22.3,0,.41l4.61,2.66a.79.79,0,0,0,.7,0l4.82-2.78c.2-.12.22-.3,0-.4L258.76,384A.76.76,0,0,0,258.06,384Zm-7,4.06-4.82,2.79c-.21.11-.23.3,0,.4l4.61,2.66a.76.76,0,0,0,.7,0l4.81-2.78c.21-.12.23-.3.05-.41l-4.61-2.66A.82.82,0,0,0,251,388.08ZM265.1,380l-4.82,2.78c-.2.12-.22.3,0,.41l4.61,2.66a.79.79,0,0,0,.7,0l4.82-2.79c.2-.11.22-.29,0-.4l-4.61-2.66A.79.79,0,0,0,265.1,380Zm-28.17,16.27L232.11,399c-.2.12-.22.3,0,.4l4.61,2.66a.76.76,0,0,0,.7,0l4.82-2.78c.21-.12.22-.3,0-.41l-4.61-2.66A.79.79,0,0,0,236.93,396.22Zm7-4.07-4.81,2.78c-.21.12-.23.3,0,.41l4.6,2.66a.79.79,0,0,0,.7,0l4.82-2.78c.21-.12.23-.3,0-.4l-4.61-2.66A.76.76,0,0,0,244,392.15Zm-9,26.48,4.81-2.78c.21-.12.23-.3,0-.41l-4.61-2.66a.79.79,0,0,0-.7,0l-4.82,2.78c-.21.12-.23.3,0,.4l4.61,2.66A.76.76,0,0,0,235,418.63Zm-37.14-1.75-4.61-2.66a.76.76,0,0,0-.7,0L187.73,417c-.21.12-.23.3,0,.41l4.61,2.66a.79.79,0,0,0,.7,0l4.82-2.78C198,417.16,198,417,197.85,416.88Zm9.18,2.3-4.61-2.66a.82.82,0,0,0-.7,0l-7.41,4.28c-.2.12-.22.3,0,.41l4.61,2.66a.79.79,0,0,0,.7,0l7.41-4.27C207.2,419.47,207.21,419.29,207,419.18ZM191,411.62,186.36,409a.82.82,0,0,0-.7,0l-5.93,3.43c-.2.12-.22.3,0,.4l4.61,2.66a.76.76,0,0,0,.7,0l5.93-3.42C191.14,411.91,191.16,411.73,191,411.62Zm4.55-2.62a.79.79,0,0,0,.7,0l4.82-2.78c.2-.12.22-.3,0-.4l-4.61-2.66a.76.76,0,0,0-.7,0L191,405.93c-.2.12-.22.3,0,.41Zm19.95,12.91-4.61-2.66a.79.79,0,0,0-.7,0l-9.26,5.35c-.21.11-.23.29-.05.4l4.61,2.66a.79.79,0,0,0,.7,0l9.27-5.35C215.63,422.2,215.65,422,215.47,421.91Zm3.25,5.73L214.11,425a.76.76,0,0,0-.7,0l-5.93,3.43c-.2.12-.22.3,0,.4l4.61,2.66a.76.76,0,0,0,.7,0l5.93-3.43C218.88,427.93,218.9,427.75,218.72,427.64Zm29.16-48.87a.79.79,0,0,0,.7,0l4.81-2.78c.21-.12.23-.3.05-.4l-4.61-2.66a.75.75,0,0,0-.7,0l-4.82,2.78c-.21.12-.22.3,0,.41Zm-14.09,8.13a.82.82,0,0,0,.7,0l4.82-2.79c.21-.11.22-.3,0-.4L234.74,381a.76.76,0,0,0-.7,0l-4.82,2.78c-.2.12-.22.3,0,.41Zm-31.23,18a.76.76,0,0,0,.7,0l4.82-2.78c.2-.12.22-.3,0-.41l-4.61-2.66a.82.82,0,0,0-.7,0L198,401.87c-.2.11-.22.29,0,.4Zm38.27-22.1a.75.75,0,0,0,.7,0l4.82-2.78c.21-.12.23-.3,0-.41L241.78,377a.79.79,0,0,0-.7,0l-4.81,2.78c-.21.12-.23.3,0,.4ZM226.75,391a.79.79,0,0,0,.7,0l4.82-2.78c.2-.12.22-.3,0-.4l-4.61-2.67a.79.79,0,0,0-.7,0l-4.82,2.78c-.2.12-.22.3,0,.4Zm-4.57,37a.76.76,0,0,0-.7,0l-7.41,4.28c-.21.12-.23.3,0,.4l4.61,2.66a.75.75,0,0,0,.7,0l7.42-4.28c.2-.12.22-.3,0-.4Zm-5.53-31.13a.82.82,0,0,0,.7,0l4.81-2.79c.21-.11.23-.29,0-.4l-4.6-2.66a.75.75,0,0,0-.7,0l-4.82,2.78c-.21.12-.23.3,0,.41Zm-7.05,4.07a.79.79,0,0,0,.7,0l4.82-2.78c.21-.12.22-.3,0-.4L210.55,395a.79.79,0,0,0-.7,0L205,397.8c-.21.12-.23.3,0,.4Zm143-48.27a.79.79,0,0,0-.7,0l-11.86,6.85c-.21.11-.23.3,0,.4l4.61,2.66a.76.76,0,0,0,.7,0l11.86-6.85c.2-.12.22-.3,0-.4Zm-15.57,9a.79.79,0,0,0-.7,0l-4.82,2.78c-.2.12-.22.3,0,.4l4.61,2.66a.76.76,0,0,0,.7,0l4.82-2.78c.2-.12.22-.3,0-.41Zm-95,53,4.82-2.78c.2-.12.22-.3,0-.4l-4.61-2.66a.76.76,0,0,0-.7,0l-4.82,2.78c-.2.12-.22.3,0,.41l4.61,2.66A.79.79,0,0,0,242,414.56Zm81-44.84a.79.79,0,0,0-.7,0l-4.82,2.78c-.21.12-.22.3,0,.4l4.61,2.66a.76.76,0,0,0,.7,0l4.82-2.78c.2-.12.22-.3,0-.41Zm36.69-21.18a.76.76,0,0,0-.7,0l-4.82,2.78c-.2.12-.22.3,0,.41l4.61,2.66a.79.79,0,0,0,.7,0l4.82-2.79c.2-.11.22-.29,0-.4Zm11.65-1.4-11.19-6.47a.79.79,0,0,0-.7,0l-4.82,2.78c-.21.12-.23.3,0,.4l11.19,6.46a.76.76,0,0,0,.7,0l4.82-2.78C371.49,347.42,371.51,347.24,371.33,347.14Zm-74.66,37.78a.76.76,0,0,0-.7,0L290,388.36c-.2.12-.22.3,0,.41l4.61,2.66a.79.79,0,0,0,.7,0l5.93-3.42c.21-.12.22-.3,0-.4Zm17.79-10.28a.79.79,0,0,0-.7,0L306.35,379c-.2.12-.22.3,0,.4l4.61,2.66a.76.76,0,0,0,.7,0l7.41-4.28c.21-.12.22-.3,0-.4Zm-34.09,19.69a.82.82,0,0,0-.7,0L240,417.25c-.2.12-.22.3,0,.4l4.61,2.67a.79.79,0,0,0,.7,0l39.65-22.89c.21-.12.23-.3.05-.41Zm-41.88,24.18a.82.82,0,0,0-.7,0L231.86,422c-.21.12-.23.3-.05.4l4.61,2.66a.75.75,0,0,0,.7,0l5.93-3.42c.21-.12.23-.3,0-.41Zm50-28.89a.79.79,0,0,0-.7,0l-5.93,3.42c-.2.12-.22.3,0,.4l4.61,2.67a.79.79,0,0,0,.7,0l5.93-3.42c.2-.12.22-.3,0-.41Zm-58.19,33.6a.76.76,0,0,0-.7,0l-5.93,3.43c-.2.11-.22.29,0,.4l4.61,2.66a.76.76,0,0,0,.7,0l5.93-3.43c.2-.12.22-.3,0-.4Zm74.5-43a.76.76,0,0,0-.7,0l-5.93,3.43c-.21.11-.23.29,0,.4l4.61,2.66a.76.76,0,0,0,.7,0l5.93-3.43c.2-.11.22-.3,0-.4ZM330,365.66a.76.76,0,0,0-.7,0l-4.82,2.78c-.2.12-.22.3,0,.41l4.61,2.66a.79.79,0,0,0,.7,0l4.82-2.78c.2-.12.22-.3,0-.4Zm15.77-11,4.82-2.78c.21-.12.22-.3,0-.41l-4.61-2.66a.79.79,0,0,0-.7,0l-4.82,2.78c-.2.12-.22.3,0,.4l4.61,2.66A.76.76,0,0,0,345.8,354.65ZM317.07,356l4.81-2.78c.21-.12.23-.3.05-.4l-4.61-2.66a.75.75,0,0,0-.7,0L311.8,353c-.21.12-.22.3,0,.41l4.61,2.66A.79.79,0,0,0,317.07,356Zm-18.71,26,14.09-8.13c.2-.12.22-.3,0-.41l-4.61-2.66a.79.79,0,0,0-.7,0L293.09,379c-.2.12-.22.3,0,.4l4.61,2.66A.76.76,0,0,0,298.36,382Zm39.7-23.3a.82.82,0,0,0,.7,0l4.82-2.79c.2-.11.22-.3,0-.4L339,352.87a.76.76,0,0,0-.7,0l-4.82,2.78c-.2.12-.22.3,0,.41Zm-5.88-3.83,4.81-2.78c.21-.12.23-.3.05-.4l-4.61-2.66a.75.75,0,0,0-.7,0l-4.82,2.78c-.21.12-.23.3,0,.41l4.61,2.66A.79.79,0,0,0,332.18,354.91Zm-40.86,31.2,4.82-2.79c.2-.12.22-.3,0-.4l-4.61-2.66a.76.76,0,0,0-.7,0l-4.82,2.78c-.2.12-.22.3,0,.41l4.61,2.66A.82.82,0,0,0,291.32,386.11Zm31.17-18.38a.79.79,0,0,0,.7,0l4.82-2.78c.21-.12.23-.3,0-.4l-4.61-2.66a.76.76,0,0,0-.7,0l-4.81,2.78c-.21.12-.23.3,0,.41Zm-66.38,38.7,4.82-2.78c.2-.12.22-.3,0-.4l-4.61-2.66a.76.76,0,0,0-.7,0l-4.82,2.78c-.2.12-.22.3,0,.41l4.61,2.66A.79.79,0,0,0,256.11,406.43Zm7-4.06,4.82-2.78c.21-.12.22-.3,0-.41l-4.61-2.66a.82.82,0,0,0-.7,0l-4.81,2.79c-.21.11-.23.3-.05.4l4.61,2.66A.75.75,0,0,0,263.15,402.37Zm-14.08,8.13,4.82-2.78c.2-.12.22-.3,0-.41l-4.61-2.66a.79.79,0,0,0-.7,0l-4.82,2.78c-.2.12-.22.3,0,.4l4.61,2.66A.76.76,0,0,0,249.07,410.5Zm28.17-16.26,4.82-2.79c.2-.11.22-.29,0-.4l-4.61-2.66a.79.79,0,0,0-.7,0L272,391.19c-.21.12-.22.3,0,.41l4.61,2.66A.79.79,0,0,0,277.24,394.24Zm-7,4.06,4.81-2.78c.21-.12.23-.3,0-.4l-4.6-2.67a.79.79,0,0,0-.7,0l-4.82,2.78c-.21.12-.23.3,0,.4l4.61,2.67A.79.79,0,0,0,270.2,398.3Zm14.08-8.13,4.82-2.78c.2-.12.22-.3,0-.41l-4.61-2.66a.79.79,0,0,0-.7,0L279,387.13c-.2.12-.22.3,0,.4l4.61,2.66A.76.76,0,0,0,284.28,390.17Zm38.43-56.56a.76.76,0,0,0,.7,0l4.81-2.78c.21-.12.23-.3,0-.41l-1.23-.71a.79.79,0,0,0-.7,0l-4.82,2.78c-.2.12-.22.3,0,.4Zm-35,22.16a.76.76,0,0,0,.7,0l4.81-2.78c.21-.12.23-.3,0-.41l-4.61-2.66a.79.79,0,0,0-.7,0l-4.82,2.78c-.21.12-.23.3,0,.4Zm14.08-8.13a.76.76,0,0,0,.7,0l4.82-2.78c.2-.12.22-.3,0-.41l-4.61-2.66a.82.82,0,0,0-.7,0l-4.82,2.79c-.2.11-.22.3,0,.4Zm-22.68,13.1a.79.79,0,0,0,.7,0l4.82-2.78c.2-.12.22-.3,0-.4l-4.61-2.66a.76.76,0,0,0-.7,0l-4.82,2.78c-.21.12-.22.3,0,.41Zm15.64-9a.79.79,0,0,0,.7,0l4.82-2.78c.2-.12.22-.3,0-.4l-4.61-2.66a.76.76,0,0,0-.7,0l-4.82,2.78c-.2.12-.22.3,0,.41ZM265,368.87a.79.79,0,0,0,.7,0l4.82-2.78c.21-.12.22-.3,0-.4L266,363a.76.76,0,0,0-.7,0l-4.81,2.78c-.21.12-.23.3,0,.41Zm7.05-4.07a.76.76,0,0,0,.7,0l4.81-2.78c.21-.12.23-.3,0-.41l-4.6-2.66a.79.79,0,0,0-.7,0l-4.82,2.78c-.21.12-.23.3,0,.4Zm36.55-23.06a.76.76,0,0,0,.7,0l4.82-2.78c.21-.12.22-.3,0-.41l-1.23-.7a.74.74,0,0,0-.69,0l-4.82,2.78c-.21.12-.23.3,0,.4Zm21.13-12.19a.79.79,0,0,0,.7,0l4.82-2.78c.2-.12.22-.3,0-.4l-1.23-.71a.76.76,0,0,0-.7,0l-4.82,2.78c-.2.12-.22.3,0,.41Zm9.68,5.59a.79.79,0,0,0,.7,0l4.82-2.78c.2-.12.22-.3,0-.4l-4.61-2.66a.76.76,0,0,0-.7,0l-4.82,2.78c-.2.12-.22.3,0,.41Zm13.41,15.44,4.82-2.78c.21-.12.23-.3,0-.4l-4.61-2.66a.76.76,0,0,0-.7,0l-4.81,2.78c-.21.12-.23.3,0,.41l4.6,2.66A.79.79,0,0,0,352.84,350.58Zm-37.18-12.9a.79.79,0,0,0,.7,0l4.82-2.78c.21-.12.23-.3,0-.4l-1.22-.71a.79.79,0,0,0-.7,0l-4.82,2.79c-.21.11-.22.29,0,.4ZM258,372.93a.76.76,0,0,0,.7,0l4.82-2.78c.2-.12.22-.3,0-.41l-4.61-2.66a.79.79,0,0,0-.7,0l-4.82,2.78c-.2.12-.22.3,0,.4Z" style="fill:#455a64"></path><polygon points="278.15 413.01 279.2 413.61 307.02 429.67 356.51 401.1 357.54 400.51 328.67 383.85 278.15 413.01" style="fill:#263238"></polygon><polygon points="355.88 401.47 328.67 385.77 279.83 413.98 307.02 429.67 355.88 401.47" style="fill:#37474f"></polygon></g></g><g id="freepik--Screen--inject-130"><g id="freepik--Window--inject-130"><path d="M153.62,273.59a5.46,5.46,0,0,0-2.54,4.64L159.33,399l159.31-91.95a5.46,5.46,0,0,0,2.54-4.64l-8.25-120.77Z" style="fill:#fff"></path><path d="M312.93,181.64l-4.07-2.35-159.31,92a5.43,5.43,0,0,0-2.54,4.64l8.25,120.77,4.07,2.34,159.31-91.95a5.46,5.46,0,0,0,2.54-4.65Z" style="fill:#e0e0e0"></path><path d="M153.62,273.59a5.46,5.46,0,0,0-2.54,4.64L159.33,399l159.31-91.95a5.46,5.46,0,0,0,2.54-4.64l-8.25-120.77Z" style="fill:#fff"></path><path d="M312,183.3l8.15,119.17a4.53,4.53,0,0,1-2.05,3.71L160.22,397.33l-8.15-119.16a4.52,4.52,0,0,1,2.05-3.72L312,183.3m.89-1.66L153.62,273.59a5.46,5.46,0,0,0-2.54,4.64L159.33,399l159.31-91.95a5.46,5.46,0,0,0,2.54-4.64l-8.25-120.77Z" style="fill:#f0f0f0"></path><path d="M164.28,323.43a1.07,1.07,0,0,1-.53-.13,1.26,1.26,0,0,1-.63-1.08L160.58,285a2.73,2.73,0,0,1,1.27-2.34l58.6-33.82a1.33,1.33,0,0,1,1.3-.1,1.28,1.28,0,0,1,.62,1.08L224.91,287a2.73,2.73,0,0,1-1.27,2.34l-58.59,33.83A1.64,1.64,0,0,1,164.28,323.43Zm-2.74-38.52,2.54,37.25a.39.39,0,0,0,.12.29.48.48,0,0,0,.36-.08l58.6-33.83a1.76,1.76,0,0,0,.79-1.44l-2.54-37.25a.35.35,0,0,0-.12-.28s-.18,0-.36.07l-58.59,33.83a1.78,1.78,0,0,0-.8,1.44Z" style="fill:#f5f5f5"></path><path d="M167.57,371.63a1.25,1.25,0,0,1-.54-.12,1.28,1.28,0,0,1-.62-1.08l-2.54-37.25a2.73,2.73,0,0,1,1.27-2.34l141.47-81.68a1.33,1.33,0,0,1,1.3-.09,1.25,1.25,0,0,1,.63,1.07l2.54,37.26a2.7,2.7,0,0,1-1.27,2.33L168.33,371.41A1.47,1.47,0,0,1,167.57,371.63ZM307.38,249.91a.53.53,0,0,0-.28.09L165.62,331.68a1.76,1.76,0,0,0-.79,1.43l2.54,37.25a.36.36,0,0,0,.12.29s.18,0,.36-.07L309.32,288.9a1.74,1.74,0,0,0,.79-1.44l-2.54-37.25a.36.36,0,0,0-.11-.29Z" style="fill:#f5f5f5"></path><path d="M167,292.74l3.6-2.08c.55-.32,1-.11,1.07.46a1.93,1.93,0,0,1-.93,1.61l-3.6,2.08c-.55.32-1,.11-1.07-.46A1.93,1.93,0,0,1,167,292.74Z" style="fill:#e0e0e0"></path><path d="M167.11,285.62l20.72-12c.62-.36,1.15-.12,1.19.52a2.15,2.15,0,0,1-1,1.8l-20.72,12c-.61.35-1.15.12-1.19-.52A2.17,2.17,0,0,1,167.11,285.62Z" style="fill:#e0e0e0"></path><path d="M167.41,299l3.61-2.08c.55-.31,1-.11,1.06.46a1.89,1.89,0,0,1-.92,1.61L167.55,301c-.55.31-1,.11-1.06-.47A1.92,1.92,0,0,1,167.41,299Z" style="fill:#e0e0e0"></path><path d="M167.83,305.18l3.61-2.08c.55-.32,1-.11,1.06.46a1.92,1.92,0,0,1-.92,1.61l-3.6,2.08c-.55.32-1,.11-1.07-.46A1.94,1.94,0,0,1,167.83,305.18Z" style="fill:#e0e0e0"></path><path d="M168.26,311.38l3.6-2.09c.55-.31,1-.11,1.07.47a1.93,1.93,0,0,1-.93,1.61l-3.6,2.08c-.55.31-1,.11-1.07-.46A1.93,1.93,0,0,1,168.26,311.38Z" style="fill:#e0e0e0"></path><path d="M174.88,309.94a.27.27,0,0,1-.22-.1.22.22,0,0,1,.07-.31l45-26a.24.24,0,0,1,.33.07.2.2,0,0,1-.06.3l-45,26A.2.2,0,0,1,174.88,309.94Z" style="fill:#e0e0e0"></path><path d="M174.45,303.73a.26.26,0,0,1-.21-.11.21.21,0,0,1,.07-.3l45-26a.25.25,0,0,1,.33.08.21.21,0,0,1-.07.3l-45,26A.24.24,0,0,1,174.45,303.73Z" style="fill:#e0e0e0"></path><path d="M174,297.54a.26.26,0,0,1-.21-.11.2.2,0,0,1,.06-.3l45-26a.26.26,0,0,1,.33.07.22.22,0,0,1-.07.31l-45,26Z" style="fill:#e0e0e0"></path><path d="M173.61,291.34a.24.24,0,0,1-.21-.1.21.21,0,0,1,.06-.31l45-26a.25.25,0,0,1,.34.07.21.21,0,0,1-.07.3l-45,26Z" style="fill:#e0e0e0"></path><g style="opacity:0.30000000000000004"><polygon points="175.71 309.14 175.29 303.02 179.51 299.76 184.66 296.75 187.75 292.59 192.99 289.56 195.98 285.41 206.47 279.36 209.75 274.77 214.11 268.59 218.59 265.4 219.84 283.74 175.71 309.14" style="fill:#4DBC1B"></polygon></g><polygon points="175.71 309.14 175.4 304.56 181.03 301.26 185.89 297.3 191.09 294.32 196.33 290.09 201.54 287.05 204.53 282.9 209.9 279.79 212.76 275.73 216.39 271.2 218.89 269.76 219.84 283.74 175.71 309.14" style="fill:#4DBC1B"></polygon><path d="M237,247.92c.23,3.32-1.41,7.07-3.65,8.37s-4.25-.35-4.48-3.68,1.41-7.07,3.65-8.36S236.73,244.6,237,247.92Z" style="fill:#4DBC1B"></path><path d="M232.58,253.6a.54.54,0,0,1-.38-.14l-1.59-1.29a.62.62,0,0,1-.08-.86.61.61,0,0,1,.86-.08l.91.74,1.94-5.56A.63.63,0,0,1,235,246a.61.61,0,0,1,.37.78l-2.23,6.39a.62.62,0,0,1-.41.38A.5.5,0,0,1,232.58,253.6Z" style="fill:#fff"></path><path d="M238.51,270.64c.22,3.32-1.41,7.06-3.66,8.36s-4.24-.35-4.47-3.67,1.41-7.07,3.65-8.37S238.28,267.31,238.51,270.64Z" style="fill:#455a64"></path><path d="M233.18,276.49a.56.56,0,0,1-.25-.05.61.61,0,0,1-.31-.8l2.53-5.8a.62.62,0,0,1,.81-.32.62.62,0,0,1,.31.8l-2.54,5.81A.6.6,0,0,1,233.18,276.49Z" style="fill:#fff"></path><path d="M236,274.86a.61.61,0,0,1-.39-.13l-3.1-2.55a.61.61,0,1,1,.77-.94l3.1,2.55a.6.6,0,0,1-.38,1.07Z" style="fill:#fff"></path><path d="M263.39,228.83,241.6,241.41c-.36.21-.67,0-.7-.45v-.12a1.34,1.34,0,0,1,.58-1.19l21.79-12.58c.35-.2.66,0,.69.45v.12A1.37,1.37,0,0,1,263.39,228.83Z" style="fill:#e0e0e0"></path><path d="M263.7,233.4,241.91,246c-.35.2-.66,0-.7-.45v-.13a1.36,1.36,0,0,1,.58-1.18l21.79-12.58c.35-.21.66,0,.69.45v.12A1.39,1.39,0,0,1,263.7,233.4Z" style="fill:#e0e0e0"></path><path d="M264,238l-21.79,12.58c-.35.2-.66,0-.69-.45V250a1.38,1.38,0,0,1,.58-1.19l21.79-12.58c.35-.2.66,0,.7.45v.12A1.38,1.38,0,0,1,264,238Z" style="fill:#e0e0e0"></path><path d="M264.94,251.55l-21.79,12.58c-.36.2-.67,0-.7-.45v-.12a1.35,1.35,0,0,1,.59-1.19l21.79-12.58c.35-.21.66,0,.69.45v.12A1.39,1.39,0,0,1,264.94,251.55Z" style="fill:#e0e0e0"></path><path d="M265.25,256.11l-21.79,12.58c-.35.21-.67,0-.7-.45v-.12a1.37,1.37,0,0,1,.58-1.19l21.79-12.58c.35-.2.66,0,.69.45v.12A1.37,1.37,0,0,1,265.25,256.11Z" style="fill:#e0e0e0"></path><path d="M265.56,260.67l-21.79,12.59c-.35.2-.66,0-.69-.45v-.13a1.36,1.36,0,0,1,.58-1.18l21.79-12.59c.35-.2.66,0,.69.46v.12A1.36,1.36,0,0,1,265.56,260.67Z" style="fill:#e0e0e0"></path><path d="M277.93,224.27c.23,3.32-1.41,7.06-3.65,8.36s-4.25-.35-4.48-3.67,1.41-7.07,3.66-8.37S277.7,220.94,277.93,224.27Z" style="fill:#4DBC1B"></path><path d="M273.55,230a.62.62,0,0,1-.38-.14l-1.58-1.3a.61.61,0,1,1,.77-.94l.91.75,2-5.57a.6.6,0,1,1,1.14.4l-2.23,6.39a.64.64,0,0,1-.41.39Z" style="fill:#fff"></path><path d="M279.48,247c.23,3.32-1.41,7.07-3.65,8.37s-4.25-.35-4.48-3.68,1.41-7.07,3.66-8.36S279.25,243.66,279.48,247Z" style="fill:#455a64"></path><path d="M274.15,252.84a.64.64,0,0,1-.24-.05.62.62,0,0,1-.32-.81l2.54-5.8a.61.61,0,0,1,1.11.49l-2.53,5.8A.62.62,0,0,1,274.15,252.84Z" style="fill:#fff"></path><path d="M277,251.21a.64.64,0,0,1-.39-.14l-3.1-2.55a.6.6,0,0,1-.09-.85.62.62,0,0,1,.86-.09l3.1,2.55a.62.62,0,0,1,.09.86A.63.63,0,0,1,277,251.21Z" style="fill:#fff"></path><path d="M304.36,205.18l-21.79,12.58c-.35.2-.66,0-.69-.45v-.12a1.37,1.37,0,0,1,.58-1.19l21.79-12.58c.35-.21.66,0,.69.45V204A1.39,1.39,0,0,1,304.36,205.18Z" style="fill:#e0e0e0"></path><path d="M304.67,209.74l-21.79,12.58c-.35.21-.66,0-.69-.45v-.12a1.39,1.39,0,0,1,.58-1.19L304.55,208c.35-.2.67,0,.7.45v.12A1.34,1.34,0,0,1,304.67,209.74Z" style="fill:#e0e0e0"></path><path d="M305,214.3l-21.79,12.59c-.35.2-.66,0-.69-.45v-.13a1.36,1.36,0,0,1,.58-1.18l21.79-12.59c.36-.2.67,0,.7.45v.13A1.35,1.35,0,0,1,305,214.3Z" style="fill:#e0e0e0"></path><path d="M305.91,227.89l-21.79,12.58c-.35.21-.66,0-.7-.45v-.12a1.39,1.39,0,0,1,.58-1.19l21.79-12.58c.35-.2.66,0,.69.45v.12A1.37,1.37,0,0,1,305.91,227.89Z" style="fill:#e0e0e0"></path><path d="M306.22,232.46,284.43,245c-.35.2-.66,0-.69-.45v-.13a1.36,1.36,0,0,1,.58-1.18L306.1,230.7c.35-.21.66,0,.7.45v.12A1.39,1.39,0,0,1,306.22,232.46Z" style="fill:#e0e0e0"></path><path d="M306.53,237,284.74,249.6c-.35.2-.66,0-.69-.45V249a1.38,1.38,0,0,1,.58-1.19l21.79-12.58c.36-.2.67,0,.7.45v.12A1.33,1.33,0,0,1,306.53,237Z" style="fill:#e0e0e0"></path><path d="M287.35,279.23a.17.17,0,0,1,0-.12.24.24,0,0,1,.08-.09l1.63-.94a.1.1,0,0,1,.09,0,.13.13,0,0,1,0,.09l0,.39a.31.31,0,0,1,0,.13.24.24,0,0,1-.08.09l-1.22.7v.74a1.37,1.37,0,0,1,.23-.2l.19-.12a1.33,1.33,0,0,1,.46-.18.65.65,0,0,1,.37,0,.59.59,0,0,1,.27.27,1.11,1.11,0,0,1,.12.5,2.4,2.4,0,0,1,0,.66,2.18,2.18,0,0,1-.56,1,2.66,2.66,0,0,1-.44.33,1.41,1.41,0,0,1-.52.21.63.63,0,0,1-.37,0,.47.47,0,0,1-.24-.22,1.07,1.07,0,0,1-.11-.37.16.16,0,0,1,0-.13.24.24,0,0,1,.08-.09l.35-.2a.08.08,0,0,1,.08,0,.1.1,0,0,1,.05.07.4.4,0,0,0,.1.16.24.24,0,0,0,.14.05.27.27,0,0,0,.17,0l.19-.09a1,1,0,0,0,.39-.41,1,1,0,0,0,.12-.56.34.34,0,0,0-.18-.32.42.42,0,0,0-.41.05,1,1,0,0,0-.21.15.71.71,0,0,0-.12.13.76.76,0,0,0-.08.11l-.1.08-.4.23a.06.06,0,0,1-.08,0s0,0-.05-.08Z" style="fill:#455a64"></path><path d="M292.23,277.77a1.52,1.52,0,0,1,0,.23l0,.26,0,.26c0,.09,0,.17,0,.24a3.39,3.39,0,0,1,0,.64,1.91,1.91,0,0,1-.16.59,2,2,0,0,1-.86.95,1.24,1.24,0,0,1-.55.19.51.51,0,0,1-.37-.11.81.81,0,0,1-.24-.36,2.78,2.78,0,0,1-.11-.56c0-.13,0-.29-.05-.47s0-.34,0-.49a3.55,3.55,0,0,1,0-.65,2,2,0,0,1,.16-.6,2.12,2.12,0,0,1,.33-.53,2.31,2.31,0,0,1,.53-.43,1.33,1.33,0,0,1,.55-.19.51.51,0,0,1,.37.11.81.81,0,0,1,.24.36A2.78,2.78,0,0,1,292.23,277.77Zm-1.68,2a.92.92,0,0,0,.19.53q.15.15.45,0a.91.91,0,0,0,.42-.47,1.85,1.85,0,0,0,.1-.7c0-.15,0-.3,0-.47s0-.33,0-.47a1,1,0,0,0-.19-.53q-.15-.15-.45,0a1,1,0,0,0-.42.47,1.85,1.85,0,0,0-.1.7c0,.15,0,.31,0,.48S290.54,279.6,290.55,279.74Z" style="fill:#455a64"></path><path d="M293.21,275.67a.5.5,0,0,1,.28-.1.36.36,0,0,1,.21,0,.47.47,0,0,1,.13.15.62.62,0,0,1,.07.23q0,.13,0,.3c0,.11,0,.22,0,.32a1.49,1.49,0,0,1,0,.28,1,1,0,0,1-.11.29,1,1,0,0,1-.18.27,1,1,0,0,1-.28.22.6.6,0,0,1-.28.1.36.36,0,0,1-.21,0,.32.32,0,0,1-.13-.15.62.62,0,0,1-.07-.23l0-.3c0-.11,0-.21,0-.31a1.5,1.5,0,0,1,0-.29,1.15,1.15,0,0,1,.11-.29,1.27,1.27,0,0,1,.18-.27A1,1,0,0,1,293.21,275.67Zm1.74-.87.06-.12a.24.24,0,0,1,.09-.08l.26-.15s.06,0,.08,0a.09.09,0,0,1,0,.06,0,0,0,0,1,0,0,.06.06,0,0,1,0,0l-1.89,4.86-.06.11a.24.24,0,0,1-.09.08l-.26.15a.08.08,0,0,1-.08,0,.06.06,0,0,1,0-.06v0a.06.06,0,0,1,0,0Zm-1.43,2v-.41c0-.05,0-.08,0-.1a.34.34,0,0,0-.07-.16s-.1,0-.18,0a.42.42,0,0,0-.17.18.57.57,0,0,0,0,.22v.11a.92.92,0,0,0,0,.16.61.61,0,0,0,0,.14c0,.05,0,.09,0,.11a.26.26,0,0,0,.07.15s.1,0,.18,0a.42.42,0,0,0,.17-.18A.54.54,0,0,0,293.52,276.79Zm1.7-.25a.53.53,0,0,1,.28-.1.36.36,0,0,1,.21,0,.32.32,0,0,1,.13.15.62.62,0,0,1,.07.23q0,.13,0,.3c0,.11,0,.22,0,.32a1.49,1.49,0,0,1,0,.28,1.15,1.15,0,0,1-.11.29,1,1,0,0,1-.18.27,1.24,1.24,0,0,1-.28.22.73.73,0,0,1-.28.1.36.36,0,0,1-.21,0,.47.47,0,0,1-.13-.15.88.88,0,0,1-.07-.23q0-.14,0-.3c0-.11,0-.22,0-.32a1.49,1.49,0,0,1,0-.28,1,1,0,0,1,.11-.29,1.27,1.27,0,0,1,.18-.27A1,1,0,0,1,295.22,276.54Zm.31,1.12a.39.39,0,0,0,0-.11v-.3c0-.05,0-.08,0-.1a.34.34,0,0,0-.07-.16s-.1,0-.18,0a.42.42,0,0,0-.17.18.57.57,0,0,0,0,.22v.11a.76.76,0,0,0,0,.15c0,.06,0,.11,0,.15s0,.08,0,.1a.27.27,0,0,0,.07.16s.1,0,.18,0a.36.36,0,0,0,.17-.18A.54.54,0,0,0,295.53,277.66Z" style="fill:#455a64"></path><path d="M284.75,279.41a17.49,17.49,0,0,1,2-5.26c.17-.29.35-.57.53-.85a12.55,12.55,0,0,1,3.53-3.61l-.25-3.6a17,17,0,0,0-5.12,5.25c-.19.28-.36.56-.53.85a24,24,0,0,0-2.88,7.65c-.06.32-.11.65-.15,1a18,18,0,0,0-.15,3.79,13.05,13.05,0,0,0,.63,3.33c.09.26.18.5.28.74a6.74,6.74,0,0,0,3.66,3.86,5.29,5.29,0,0,0,.6.21,7.35,7.35,0,0,0,5.42-.85l-.24-3.6a5.29,5.29,0,0,1-3.73.58,3.35,3.35,0,0,1-.61-.2A4.94,4.94,0,0,1,285.2,286c-.1-.23-.19-.48-.27-.73a9.79,9.79,0,0,1-.43-2.3,12.56,12.56,0,0,1,.1-2.59C284.64,280.06,284.69,279.73,284.75,279.41Z" style="fill:#f0f0f0"></path><path d="M301.76,269.07c-.09-.25-.18-.5-.27-.73a7.24,7.24,0,0,0-3.91-4.14,4.69,4.69,0,0,0-.6-.2,7.79,7.79,0,0,0-5.8.91l.05.77.25,3.61.06.81a4.84,4.84,0,0,1,3.34-.53,4.35,4.35,0,0,1,.61.2,4.5,4.5,0,0,1,2.25,2.4,6.93,6.93,0,0,1,.27.73,9,9,0,0,1,.39,2.06,12.21,12.21,0,0,1-.09,2.33c0,.33-.09.65-.15,1a15.94,15.94,0,0,1-1.77,4.72c-.17.29-.35.57-.53.85a11.36,11.36,0,0,1-3.17,3.23l.06.81.24,3.61.06.78a18.2,18.2,0,0,0,5.47-5.6c.19-.28.36-.57.53-.86a25,25,0,0,0,3.07-8.16c.06-.33.11-.65.16-1a19.64,19.64,0,0,0,.16-4A14.34,14.34,0,0,0,301.76,269.07Z" style="fill:#4DBC1B"></path><g style="opacity:0.30000000000000004;mix-blend-mode:screen"><path d="M301.76,269.07c-.09-.25-.18-.5-.27-.73a7.24,7.24,0,0,0-3.91-4.14,4.69,4.69,0,0,0-.6-.2,7.79,7.79,0,0,0-5.8.91l.05.77.25,3.61.06.81a4.84,4.84,0,0,1,3.34-.53,4.35,4.35,0,0,1,.61.2,4.5,4.5,0,0,1,2.25,2.4,6.93,6.93,0,0,1,.27.73,9,9,0,0,1,.39,2.06,12.21,12.21,0,0,1-.09,2.33c0,.33-.09.65-.15,1a15.94,15.94,0,0,1-1.77,4.72c-.17.29-.35.57-.53.85a11.36,11.36,0,0,1-3.17,3.23l.06.81.24,3.61.06.78a18.2,18.2,0,0,0,5.47-5.6c.19-.28.36-.57.53-.86a25,25,0,0,0,3.07-8.16c.06-.33.11-.65.16-1a19.64,19.64,0,0,0,.16-4A14.34,14.34,0,0,0,301.76,269.07Z" style="fill:#fff"></path></g><path d="M261.29,298.59a.08.08,0,0,1-.08,0,.13.13,0,0,1,0-.09l0-.67-1.35.77a.08.08,0,0,1-.08,0,.1.1,0,0,1,0-.09l0-.39a.41.41,0,0,1,0-.16.64.64,0,0,1,.06-.16l1.18-2.89a.43.43,0,0,1,.17-.24l.33-.19a.08.08,0,0,1,.08,0,.1.1,0,0,1,0,.09l.16,2.22.37-.21a.06.06,0,0,1,.08,0s0,0,.05.08l0,.4a.17.17,0,0,1,0,.12.15.15,0,0,1-.08.09l-.38.22.05.67a.31.31,0,0,1,0,.13.24.24,0,0,1-.08.09Zm-.22-1.45L261,296l-.66,1.62Z" style="fill:#455a64"></path><path d="M264.8,294a1.52,1.52,0,0,1,0,.23l0,.26,0,.26c0,.09,0,.17,0,.24a3.39,3.39,0,0,1,0,.64,1.91,1.91,0,0,1-.16.59,2,2,0,0,1-.86.95,1.43,1.43,0,0,1-.55.2.56.56,0,0,1-.38-.12.9.9,0,0,1-.23-.36,2.67,2.67,0,0,1-.11-.55c0-.14,0-.3-.05-.48s0-.34,0-.49a3.39,3.39,0,0,1,0-.64,2.38,2.38,0,0,1,.16-.61,2.12,2.12,0,0,1,.33-.53,2.31,2.31,0,0,1,.53-.43,1.29,1.29,0,0,1,.55-.19.51.51,0,0,1,.37.11.81.81,0,0,1,.24.36A2.78,2.78,0,0,1,264.8,294Zm-1.68,2a.92.92,0,0,0,.19.53q.15.15.45,0a.87.87,0,0,0,.41-.46,1.74,1.74,0,0,0,.11-.71c0-.14,0-.3,0-.47s0-.33,0-.47a1,1,0,0,0-.19-.53q-.15-.15-.45,0a1,1,0,0,0-.42.47,1.85,1.85,0,0,0-.1.7c0,.15,0,.31,0,.48S263.1,295.86,263.12,296Z" style="fill:#455a64"></path><path d="M265.78,291.93a.6.6,0,0,1,.28-.1.36.36,0,0,1,.21,0,.47.47,0,0,1,.13.15.62.62,0,0,1,.07.23q0,.13,0,.3c0,.11,0,.22,0,.32a1.41,1.41,0,0,1,0,.28,1,1,0,0,1-.11.29,1,1,0,0,1-.18.27,1,1,0,0,1-.28.22.6.6,0,0,1-.28.1.36.36,0,0,1-.21,0,.32.32,0,0,1-.13-.15.62.62,0,0,1-.07-.23q0-.14,0-.3c0-.11,0-.21,0-.31a1.5,1.5,0,0,1,0-.29,1.15,1.15,0,0,1,.11-.29,1.59,1.59,0,0,1,.18-.27A1,1,0,0,1,265.78,291.93Zm1.75-.87a.33.33,0,0,1,.05-.12.24.24,0,0,1,.09-.08l.27-.15a.06.06,0,0,1,.07,0,.09.09,0,0,1,0,.06,0,0,0,0,1,0,0s0,0,0,0l-1.89,4.86-.06.11a.24.24,0,0,1-.09.08l-.26.15a.13.13,0,0,1-.08,0,.08.08,0,0,1,0-.07v0a.06.06,0,0,1,0,0Zm-1.44,2v-.41c0-.05,0-.08,0-.1a.34.34,0,0,0-.07-.16s-.1,0-.18,0a.35.35,0,0,0-.17.17.59.59,0,0,0,0,.23v.1a.92.92,0,0,0,0,.16.76.76,0,0,0,0,.15s0,.08,0,.1a.26.26,0,0,0,.07.15s.1,0,.18,0a.36.36,0,0,0,.17-.18A.54.54,0,0,0,266.09,293.05Zm1.7-.25a.53.53,0,0,1,.28-.1.36.36,0,0,1,.21,0,.37.37,0,0,1,.13.15.62.62,0,0,1,.07.23,2.53,2.53,0,0,1,0,.3c0,.11,0,.22,0,.32a1.49,1.49,0,0,1,0,.28,1.66,1.66,0,0,1-.1.29,1.31,1.31,0,0,1-.19.27,1.44,1.44,0,0,1-.27.22.83.83,0,0,1-.29.1.36.36,0,0,1-.21,0,.47.47,0,0,1-.13-.15.88.88,0,0,1-.07-.23q0-.14,0-.3c0-.11,0-.22,0-.32a1.49,1.49,0,0,1,0-.28,1.15,1.15,0,0,1,.11-.29,1,1,0,0,1,.19-.27A.84.84,0,0,1,267.79,292.8Zm.31,1.12a.39.39,0,0,0,0-.11v-.3c0-.05,0-.08,0-.1a.26.26,0,0,0-.07-.16s-.09,0-.18,0a.42.42,0,0,0-.17.18.85.85,0,0,0,0,.22v.11a.76.76,0,0,0,0,.15c0,.06,0,.11,0,.15a.54.54,0,0,1,0,.11.35.35,0,0,0,.07.15s.1,0,.18,0a.36.36,0,0,0,.17-.18A.54.54,0,0,0,268.1,293.92Z" style="fill:#455a64"></path><path d="M268.58,301.07a12.35,12.35,0,0,1-3.52,3.6l-.35.22-.35.18a5.32,5.32,0,0,1-3.74.59,4.69,4.69,0,0,1-.6-.2,4.93,4.93,0,0,1-2.51-2.67,6.93,6.93,0,0,1-.27-.73,9.14,9.14,0,0,1-.43-2.29,13.39,13.39,0,0,1,.09-2.6c0-.33.1-.65.16-1a17.27,17.27,0,0,1,2-5.25c.17-.29.35-.58.53-.86a12.38,12.38,0,0,1,3.53-3.6l-.25-3.61a17.4,17.4,0,0,0-5.13,5.25c-.18.28-.35.57-.52.86a24,24,0,0,0-2.88,7.64c-.06.33-.11.65-.16,1a18.61,18.61,0,0,0-.14,3.79,13.22,13.22,0,0,0,.63,3.33c.08.25.17.5.27.73a6.82,6.82,0,0,0,3.66,3.87,4.69,4.69,0,0,0,.6.2,7.31,7.31,0,0,0,5.43-.84,3.9,3.9,0,0,0,.35-.19c.12-.07.24-.14.35-.22a17.13,17.13,0,0,0,5.13-5.24Z" style="fill:#f0f0f0"></path><path d="M274.07,285.85c-.09-.25-.18-.49-.28-.73a7.21,7.21,0,0,0-3.9-4.13l-.6-.21a7.83,7.83,0,0,0-5.8.91l.05.78.25,3.6,0,.82a4.88,4.88,0,0,1,3.35-.53,3.35,3.35,0,0,1,.61.2,4.48,4.48,0,0,1,2.25,2.39c.1.23.19.48.27.73a8.48,8.48,0,0,1,.38,2.06,12.14,12.14,0,0,1-.08,2.33c0,.33-.09.66-.16,1a15.55,15.55,0,0,1-1.76,4.72l.41.44,1.85,2,.4.42a25.27,25.27,0,0,0,3.07-8.16c.06-.32.11-.65.15-1a19.76,19.76,0,0,0,.16-4A14.35,14.35,0,0,0,274.07,285.85Z" style="fill:#4DBC1B"></path><path d="M233.91,310.35a.08.08,0,0,1,.09,0s0,0,0,.08l0,.4a.21.21,0,0,1,0,.13l-.06.13-.57,1.22a1,1,0,0,1,.36-.08.57.57,0,0,1,.29.07.52.52,0,0,1,.19.24,1.12,1.12,0,0,1,.09.4,1.51,1.51,0,0,1-.05.56,2,2,0,0,1-.22.53,2.54,2.54,0,0,1-.36.45,2.28,2.28,0,0,1-.46.36,1.93,1.93,0,0,1-.53.21.81.81,0,0,1-.39,0,.5.5,0,0,1-.25-.2.84.84,0,0,1-.12-.31.35.35,0,0,1,0-.13.24.24,0,0,1,.08-.09l.34-.2a.11.11,0,0,1,.08,0,.22.22,0,0,1,.06.07l.08.08a.16.16,0,0,0,.12,0,.35.35,0,0,0,.19,0,1.14,1.14,0,0,0,.26-.12,1.19,1.19,0,0,0,.42-.38.81.81,0,0,0,.14-.48c0-.17-.08-.26-.19-.27a.79.79,0,0,0-.43.14l-.36.21a.07.07,0,0,1-.09,0,.11.11,0,0,1,0-.09l0-.39a.35.35,0,0,1,0-.13c0-.05,0-.09,0-.13l.55-1.17-1.19.69a.07.07,0,0,1-.09,0,.09.09,0,0,1,0-.08l0-.4a.27.27,0,0,1,0-.12.18.18,0,0,1,.08-.09Z" style="fill:#455a64"></path><path d="M237,310.06a1.4,1.4,0,0,1,0,.23l0,.26,0,.26c0,.09,0,.16,0,.24a3.39,3.39,0,0,1,0,.64,2.34,2.34,0,0,1-.16.59,1.94,1.94,0,0,1-.34.52,1.84,1.84,0,0,1-.52.43,1.24,1.24,0,0,1-.55.19.51.51,0,0,1-.37-.11.74.74,0,0,1-.24-.36,2.78,2.78,0,0,1-.11-.56c0-.13,0-.29-.05-.47s0-.34,0-.49a3.55,3.55,0,0,1,0-.65,2,2,0,0,1,.16-.6,2.12,2.12,0,0,1,.33-.53,2.31,2.31,0,0,1,.53-.43,1.17,1.17,0,0,1,.55-.19.51.51,0,0,1,.37.11.73.73,0,0,1,.23.36A2.21,2.21,0,0,1,237,310.06Zm-1.68,2a1,1,0,0,0,.19.53q.15.15.45,0a.85.85,0,0,0,.41-.47,1.66,1.66,0,0,0,.11-.7c0-.15,0-.31,0-.48s0-.32,0-.46a1,1,0,0,0-.19-.53q-.15-.15-.45,0a.91.91,0,0,0-.42.47,1.85,1.85,0,0,0-.1.7c0,.15,0,.3,0,.47S235.33,311.89,235.35,312Z" style="fill:#455a64"></path><path d="M238,308a.5.5,0,0,1,.28-.1.36.36,0,0,1,.21,0,.47.47,0,0,1,.13.15.62.62,0,0,1,.07.23q0,.14,0,.3c0,.11,0,.22,0,.31a1.5,1.5,0,0,1,0,.29,1.15,1.15,0,0,1-.11.29,1.27,1.27,0,0,1-.18.27,1.24,1.24,0,0,1-.28.22.73.73,0,0,1-.28.1.36.36,0,0,1-.21,0,.47.47,0,0,1-.13-.15.62.62,0,0,1-.07-.23l0-.3c0-.11,0-.22,0-.32a1.49,1.49,0,0,1,0-.28,1,1,0,0,1,.11-.29,1,1,0,0,1,.18-.27A1,1,0,0,1,238,308Zm1.74-.87a.67.67,0,0,1,.06-.12.24.24,0,0,1,.09-.08l.26-.15a.08.08,0,0,1,.08,0s0,0,0,.06v0a.06.06,0,0,1,0,0l-1.89,4.85a.67.67,0,0,1-.06.12.24.24,0,0,1-.09.08l-.26.15a.08.08,0,0,1-.08,0,.06.06,0,0,1,0-.06v0a.06.06,0,0,1,0,0Zm-1.43,2v-.41c0-.05,0-.08,0-.1a.3.3,0,0,0-.07-.16s-.1,0-.18,0a.42.42,0,0,0-.17.18.57.57,0,0,0,0,.22v.11a.76.76,0,0,0,0,.15.66.66,0,0,0,0,.15c0,.05,0,.09,0,.11a.26.26,0,0,0,.07.15s.1,0,.18,0a.42.42,0,0,0,.17-.18A.54.54,0,0,0,238.32,309.08Zm1.7-.26a.73.73,0,0,1,.28-.1.46.46,0,0,1,.21,0,.28.28,0,0,1,.13.15.62.62,0,0,1,.07.23l0,.3c0,.11,0,.21,0,.31a1.5,1.5,0,0,1,0,.29,1.15,1.15,0,0,1-.11.29,1.41,1.41,0,0,1-.18.27,1.6,1.6,0,0,1-.28.22.73.73,0,0,1-.28.1.46.46,0,0,1-.21,0,.42.42,0,0,1-.13-.16.52.52,0,0,1-.07-.22q0-.13,0-.3c0-.11,0-.22,0-.32a1.41,1.41,0,0,1,0-.28,1,1,0,0,1,.11-.29,1.67,1.67,0,0,1,.18-.28A1.6,1.6,0,0,1,240,308.82Zm.31,1.13v-.41c0-.05,0-.08,0-.1a.3.3,0,0,0-.07-.16s-.1,0-.18,0a.42.42,0,0,0-.17.18.54.54,0,0,0,0,.22v.11a.76.76,0,0,0,0,.15.71.71,0,0,0,0,.15c0,.05,0,.08,0,.1a.3.3,0,0,0,.07.16s.1,0,.18,0a.36.36,0,0,0,.17-.18A.54.54,0,0,0,240.33,310Z" style="fill:#455a64"></path><path d="M243.34,311a17.27,17.27,0,0,1-2,5.25c-.17.29-.35.58-.53.85a12.42,12.42,0,0,1-3.53,3.61l-.35.22-.35.18a5.3,5.3,0,0,1-3.73.59,3.84,3.84,0,0,1-.6-.2,4.93,4.93,0,0,1-2.51-2.67,5.26,5.26,0,0,1-.28-.73,9.71,9.71,0,0,1-.43-2.29,13.41,13.41,0,0,1,.1-2.6c0-.33.09-.65.16-1a16.92,16.92,0,0,1,2-5.25c.17-.3.34-.58.53-.86a12.35,12.35,0,0,1,3.52-3.6l-.24-3.61a17.17,17.17,0,0,0-5.13,5.25c-.18.28-.36.57-.53.86a23.63,23.63,0,0,0-2.87,7.64c-.06.32-.12.65-.16,1a18.55,18.55,0,0,0-.15,3.78,12.78,12.78,0,0,0,.64,3.34c.08.25.17.5.27.73a6.85,6.85,0,0,0,3.66,3.87,3.84,3.84,0,0,0,.6.2,7.37,7.37,0,0,0,5.43-.84,3.9,3.9,0,0,1,.35-.19l.35-.22a17.17,17.17,0,0,0,5.13-5.25c.18-.28.35-.56.52-.85a24.06,24.06,0,0,0,2.88-7.64Z" style="fill:#f0f0f0"></path><path d="M246.32,301.87c-.08-.25-.17-.5-.27-.73a7.22,7.22,0,0,0-3.91-4.13,5.29,5.29,0,0,0-.6-.21,7.84,7.84,0,0,0-5.8.91l.06.78.24,3.6.06.82a4.76,4.76,0,0,1,3.35-.53,3.25,3.25,0,0,1,.6.2A4.41,4.41,0,0,1,242.3,305a5.8,5.8,0,0,1,.28.73,9,9,0,0,1,.38,2.06,13,13,0,0,1-.08,2.33l.62-.09,2.74-.43.6-.1a19.64,19.64,0,0,0,.16-4A14.34,14.34,0,0,0,246.32,301.87Z" style="fill:#4DBC1B"></path><g style="opacity:0.8;mix-blend-mode:screen"><path d="M246.32,301.87c-.08-.25-.17-.5-.27-.73a7.22,7.22,0,0,0-3.91-4.13,5.29,5.29,0,0,0-.6-.21,7.84,7.84,0,0,0-5.8.91l.06.78.24,3.6.06.82a4.76,4.76,0,0,1,3.35-.53,3.25,3.25,0,0,1,.6.2A4.41,4.41,0,0,1,242.3,305a5.8,5.8,0,0,1,.28.73,9,9,0,0,1,.38,2.06,13,13,0,0,1-.08,2.33l.62-.09,2.74-.43.6-.1a19.64,19.64,0,0,0,.16-4A14.34,14.34,0,0,0,246.32,301.87Z" style="fill:#fff"></path></g><path d="M206.23,328.1a1.15,1.15,0,0,0,.14-.37.94.94,0,0,0,0-.28.42.42,0,0,0-.13-.32c-.08-.06-.2-.05-.37.05a.82.82,0,0,0-.34.35,1.41,1.41,0,0,0-.13.48.34.34,0,0,1,0,.14l-.07.08-.35.19a.08.08,0,0,1-.08,0s0,0,0-.09a2,2,0,0,1,.06-.53,2.36,2.36,0,0,1,.21-.52,2.51,2.51,0,0,1,.32-.46,1.65,1.65,0,0,1,.42-.34.94.94,0,0,1,.48-.16.6.6,0,0,1,.35.1.82.82,0,0,1,.22.29,1.3,1.3,0,0,1,.09.4,1.22,1.22,0,0,1,0,.27,1,1,0,0,1,0,.29c0,.1-.07.21-.12.34s-.13.27-.22.43l-.74,1.41,1.2-.7a.07.07,0,0,1,.09,0,.09.09,0,0,1,0,.08l0,.4a.27.27,0,0,1,0,.12.21.21,0,0,1-.08.1l-2,1.17a.14.14,0,0,1-.09,0,.13.13,0,0,1,0-.09l0-.34a.33.33,0,0,1,0-.19c0-.06.05-.11.06-.14Z" style="fill:#455a64"></path><path d="M209.84,325.74a1.64,1.64,0,0,1,0,.23l0,.26,0,.27c0,.08,0,.16,0,.23a3.34,3.34,0,0,1,0,.64,2.41,2.41,0,0,1-.16.6,1.94,1.94,0,0,1-.34.52,2,2,0,0,1-.52.42,1.28,1.28,0,0,1-.55.2.54.54,0,0,1-.38-.11.9.9,0,0,1-.23-.37,2.67,2.67,0,0,1-.11-.55c0-.14,0-.3-.05-.48s0-.34,0-.48a4.64,4.64,0,0,1,0-.65,2.43,2.43,0,0,1,.17-.6,2,2,0,0,1,.33-.53,1.89,1.89,0,0,1,.53-.43,1.34,1.34,0,0,1,.54-.2.52.52,0,0,1,.38.11.91.91,0,0,1,.24.37A2.67,2.67,0,0,1,209.84,325.74Zm-1.68,2a1,1,0,0,0,.19.54q.15.13.45,0a.93.93,0,0,0,.41-.47,1.71,1.71,0,0,0,.11-.71c0-.14,0-.3,0-.47s0-.33,0-.46a1,1,0,0,0-.19-.54q-.15-.13-.45,0a1,1,0,0,0-.42.47,1.9,1.9,0,0,0-.1.71c0,.14,0,.3,0,.47S208.14,327.58,208.16,327.71Z" style="fill:#455a64"></path><path d="M210.82,323.64a.73.73,0,0,1,.28-.1.36.36,0,0,1,.21,0,.32.32,0,0,1,.13.15.57.57,0,0,1,.07.22l0,.31c0,.11,0,.21,0,.31a1.41,1.41,0,0,1,0,.28,1,1,0,0,1-.11.29,1.27,1.27,0,0,1-.18.27,1,1,0,0,1-.28.22.77.77,0,0,1-.28.11.36.36,0,0,1-.21-.05.28.28,0,0,1-.13-.15.57.57,0,0,1-.07-.22l0-.31c0-.11,0-.21,0-.31a1.41,1.41,0,0,1,0-.28,1.21,1.21,0,0,1,.11-.3,1.41,1.41,0,0,1,.18-.27A1.24,1.24,0,0,1,210.82,323.64Zm1.74-.87.06-.11a.26.26,0,0,1,.09-.09l.26-.15s.06,0,.08,0,0,0,0,.07a0,0,0,0,0,0,0v0l-1.89,4.85a.54.54,0,0,1-.06.11l-.09.09-.26.15a.12.12,0,0,1-.08,0s0,0,0-.07v0a.08.08,0,0,1,0,0Zm-1.43,2v-.41a.54.54,0,0,1,0-.11.26.26,0,0,0-.07-.15s-.1,0-.18,0a.36.36,0,0,0-.17.18.54.54,0,0,0,0,.22v.11a664109906293.2,664109906293.2,0,0,1,0,.3c0,.05,0,.08,0,.1a.34.34,0,0,0,.07.16s.1,0,.18,0a.35.35,0,0,0,.17-.17A.57.57,0,0,0,211.13,324.77Zm1.7-.26a.6.6,0,0,1,.28-.1.36.36,0,0,1,.21,0,.28.28,0,0,1,.13.15.52.52,0,0,1,.07.22l0,.3c0,.11,0,.22,0,.32a1.41,1.41,0,0,1,0,.28,1,1,0,0,1-.11.29,1.27,1.27,0,0,1-.18.27,1,1,0,0,1-.28.22.6.6,0,0,1-.28.1.3.3,0,0,1-.21,0,.32.32,0,0,1-.13-.15.57.57,0,0,1-.07-.22l0-.31c0-.11,0-.21,0-.31a1.41,1.41,0,0,1,0-.28,1.21,1.21,0,0,1,.11-.3,2.11,2.11,0,0,1,.18-.27A1,1,0,0,1,212.83,324.51Zm.31,1.12v-.41s0-.08,0-.1A.34.34,0,0,0,213,325s-.1,0-.18,0a.4.4,0,0,0-.17.17.62.62,0,0,0,0,.23v.11a.76.76,0,0,0,0,.15.76.76,0,0,0,0,.15s0,.08,0,.1a.34.34,0,0,0,.07.16s.1,0,.18,0a.31.31,0,0,0,.17-.17A.59.59,0,0,0,213.14,325.63Z" style="fill:#455a64"></path><path d="M218.62,318.11l-2.6,2.66a9.31,9.31,0,0,1,.43,2.3,13.29,13.29,0,0,1-.09,2.59c0,.33-.1.66-.16,1a17.33,17.33,0,0,1-2,5.26c-.17.29-.35.57-.53.85a12.26,12.26,0,0,1-3.53,3.6l-.35.23a3.84,3.84,0,0,1-.35.18,5.3,5.3,0,0,1-3.73.59,3.86,3.86,0,0,1-.6-.21,4.91,4.91,0,0,1-2.51-2.66c-.1-.23-.2-.48-.28-.73a9.79,9.79,0,0,1-.43-2.3,14.14,14.14,0,0,1,.1-2.59c0-.33.09-.66.16-1a17.33,17.33,0,0,1,2-5.26c.17-.29.34-.57.53-.85a12.23,12.23,0,0,1,3.52-3.6l-.24-3.61a17.17,17.17,0,0,0-5.13,5.25c-.18.28-.36.57-.53.86a23.63,23.63,0,0,0-2.87,7.64c-.06.32-.11.65-.16,1a18.52,18.52,0,0,0-.15,3.78,13.66,13.66,0,0,0,.64,3.34c.08.25.17.49.27.73a6.85,6.85,0,0,0,3.66,3.87,6,6,0,0,0,.6.2,7.41,7.41,0,0,0,5.43-.84l.35-.2c.12-.06.23-.14.35-.21a17.17,17.17,0,0,0,5.13-5.25c.18-.28.35-.56.52-.85a24,24,0,0,0,2.88-7.65c.06-.32.11-.65.16-1a19.26,19.26,0,0,0,.15-3.78A13.66,13.66,0,0,0,218.62,318.11Z" style="fill:#f0f0f0"></path><path d="M215,312.67c-.19-.07-.39-.14-.6-.2a7.77,7.77,0,0,0-5.79.91l0,.78.24,3.6.06.81a4.81,4.81,0,0,1,3.35-.52,3.82,3.82,0,0,1,.6.19,4.47,4.47,0,0,1,2.25,2.4l.59-.6,2.6-2.66.56-.57A7.27,7.27,0,0,0,215,312.67Z" style="fill:#4DBC1B"></path><path d="M177.9,344a.13.13,0,0,1,0-.1.28.28,0,0,1,0-.12l.88-1.5.06-.11s.05-.06.08-.07l.34-.2a.06.06,0,0,1,.08,0,.11.11,0,0,1,.05.09l.24,3.59a.22.22,0,0,1,0,.13.22.22,0,0,1-.07.09l-.36.2a.06.06,0,0,1-.08,0s0,0,0-.08l-.19-2.75-.57,1a.22.22,0,0,1-.09.08.08.08,0,0,1-.08,0Z" style="fill:#455a64"></path><path d="M182.37,341.6a2.32,2.32,0,0,0,0,.24v.26l0,.26a1.85,1.85,0,0,1,0,.23,3.5,3.5,0,0,1,0,.65,2.48,2.48,0,0,1-.17.59,1.91,1.91,0,0,1-.33.52,2.31,2.31,0,0,1-.53.43,1.24,1.24,0,0,1-.55.19.51.51,0,0,1-.37-.11.73.73,0,0,1-.23-.36,2.21,2.21,0,0,1-.12-.56c0-.14,0-.29,0-.47s0-.35,0-.49a4.63,4.63,0,0,1,0-.65,2.06,2.06,0,0,1,.17-.6,2,2,0,0,1,.33-.53,1.92,1.92,0,0,1,.53-.43,1.17,1.17,0,0,1,.54-.19.49.49,0,0,1,.38.11.8.8,0,0,1,.23.36A3.49,3.49,0,0,1,182.37,341.6Zm-1.69,2a1,1,0,0,0,.2.53c.09.1.24.09.44,0a1,1,0,0,0,.42-.47,2.08,2.08,0,0,0,.11-.71c0-.14,0-.3,0-.47s0-.32,0-.46a.92.92,0,0,0-.19-.53c-.1-.1-.24-.09-.45,0a.87.87,0,0,0-.41.46,1.93,1.93,0,0,0-.11.71c0,.15,0,.3,0,.47S180.67,343.44,180.68,343.58Z" style="fill:#455a64"></path><path d="M183.34,339.5a.79.79,0,0,1,.28-.1.46.46,0,0,1,.21.05.34.34,0,0,1,.14.15.77.77,0,0,1,.06.23,1.39,1.39,0,0,1,0,.3c0,.11,0,.21,0,.31a1.55,1.55,0,0,1,0,.29,1.25,1.25,0,0,1-.1.29,1.48,1.48,0,0,1-.19.27,1.44,1.44,0,0,1-.27.22.77.77,0,0,1-.29.1.31.31,0,0,1-.2,0,.36.36,0,0,1-.14-.16.71.71,0,0,1-.07-.22q0-.13,0-.3c0-.11,0-.22,0-.32a1.41,1.41,0,0,1,0-.28,1.45,1.45,0,0,1,.11-.29,1,1,0,0,1,.19-.27A1,1,0,0,1,183.34,339.5Zm1.75-.87.06-.11a.24.24,0,0,1,.09-.08l.26-.15a.13.13,0,0,1,.08,0,.08.08,0,0,1,0,.07v0s0,0,0,0l-1.9,4.85a.67.67,0,0,1-.06.12.36.36,0,0,1-.09.08l-.26.15a.08.08,0,0,1-.08,0,.06.06,0,0,1,0-.06v0s0,0,0,0Zm-1.43,2a.49.49,0,0,0,0-.11v-.3c0-.05,0-.08,0-.1a.24.24,0,0,0-.07-.16s-.09,0-.18,0a.42.42,0,0,0-.17.18.85.85,0,0,0,0,.22v.11c0,.05,0,.1,0,.15s0,.1,0,.15a.56.56,0,0,0,0,.1.27.27,0,0,0,.06.16s.1,0,.18,0a.36.36,0,0,0,.17-.18A.79.79,0,0,0,183.66,340.63Zm1.69-.26a.79.79,0,0,1,.28-.1.36.36,0,0,1,.21.05.34.34,0,0,1,.14.15.77.77,0,0,1,.06.23,1.39,1.39,0,0,1,0,.3c0,.11,0,.21,0,.31a.9.9,0,0,1,0,.28,1.18,1.18,0,0,1-.1.3,1.48,1.48,0,0,1-.19.27,1.52,1.52,0,0,1-.27.22.79.79,0,0,1-.28.1.46.46,0,0,1-.21,0,.36.36,0,0,1-.14-.16,1.42,1.42,0,0,1-.07-.22c0-.09,0-.2,0-.31s0-.21,0-.31a1.41,1.41,0,0,1,0-.28,1.45,1.45,0,0,1,.11-.29,1.26,1.26,0,0,1,.19-.28A1,1,0,0,1,185.35,340.37Zm.32,1.13a.49.49,0,0,0,0-.11v-.3a.25.25,0,0,0,0-.1.22.22,0,0,0-.07-.16s-.09,0-.18,0a.42.42,0,0,0-.17.18.78.78,0,0,0,0,.22v.11c0,.05,0,.1,0,.15s0,.1,0,.15a.56.56,0,0,0,0,.1.24.24,0,0,0,.07.16s.09,0,.18,0a.39.39,0,0,0,.16-.18A.59.59,0,0,0,185.67,341.5Z" style="fill:#455a64"></path><path d="M181.47,329.05l.05.77.25,3.61,0,.81a4.87,4.87,0,0,1,3.35-.53l.33-.87L187,329l.31-.84A7.77,7.77,0,0,0,181.47,329.05Z" style="fill:#4DBC1B"></path><g style="opacity:0.30000000000000004;mix-blend-mode:screen"><path d="M181.47,329.05l.05.77.25,3.61,0,.81a4.87,4.87,0,0,1,3.35-.53l.33-.87L187,329l.31-.84A7.77,7.77,0,0,0,181.47,329.05Z" style="fill:#fff"></path></g><path d="M191.48,333.78c-.08-.25-.17-.49-.27-.73a6.85,6.85,0,0,0-3.66-3.87l-1.45,3.87a4.91,4.91,0,0,1,2.51,2.66c.1.23.19.48.28.73a9.82,9.82,0,0,1,.42,2.29,13.36,13.36,0,0,1-.09,2.6c0,.33-.1.66-.16,1a17.17,17.17,0,0,1-2,5.25c-.17.3-.35.58-.53.86A12.38,12.38,0,0,1,183,352l-.34.23-.36.18a5.28,5.28,0,0,1-3.73.58,3.52,3.52,0,0,1-.6-.2,4.91,4.91,0,0,1-2.51-2.66c-.1-.23-.19-.48-.28-.73a9.81,9.81,0,0,1-.42-2.3,13.29,13.29,0,0,1,.09-2.59c0-.33.1-.66.16-1a17.23,17.23,0,0,1,2-5.26c.17-.29.35-.57.53-.85a12.42,12.42,0,0,1,3.53-3.61l-.25-3.6a17.17,17.17,0,0,0-5.13,5.25c-.18.28-.36.56-.53.85a23.77,23.77,0,0,0-2.87,7.65c-.06.32-.11.65-.16,1a19.39,19.39,0,0,0-.15,3.79,13.48,13.48,0,0,0,.64,3.33c.08.26.17.5.27.74a6.8,6.8,0,0,0,3.66,3.86l.6.21a7.37,7.37,0,0,0,5.43-.85l.35-.19c.12-.06.23-.14.35-.21a17.29,17.29,0,0,0,5.13-5.25c.18-.28.36-.57.53-.86a23.63,23.63,0,0,0,2.87-7.64c.06-.32.11-.65.16-1a19.26,19.26,0,0,0,.15-3.78A13.66,13.66,0,0,0,191.48,333.78Z" style="fill:#f0f0f0"></path><path d="M311,298.62,168.28,381c-.35.2-.67,0-.7-.45v-.12a1.34,1.34,0,0,1,.58-1.19l142.73-82.4c.35-.21.66,0,.69.45v.12A1.39,1.39,0,0,1,311,298.62Z" style="fill:#e0e0e0"></path><path d="M311.32,303.18l-142.73,82.4c-.35.21-.66,0-.69-.45V385a1.39,1.39,0,0,1,.58-1.19l142.73-82.4c.35-.2.66,0,.69.45V302A1.38,1.38,0,0,1,311.32,303.18Z" style="fill:#e0e0e0"></path><path d="M312.92,181.63l-4.06-2.34-159.31,92a5.65,5.65,0,0,0-2.44,3.46,4.37,4.37,0,0,0-.09.5,3.55,3.55,0,0,0,0,.46c0,.07,0,.15,0,.23l.41,6,4.07,2.35,162.06-93.56Z" style="fill:#37474f"></path><path d="M312.92,181.63l-159.3,92a5.41,5.41,0,0,0-2.11,2.47l-4.06-2.35a5.27,5.27,0,0,0-.34,1,5.65,5.65,0,0,1,2.44-3.46l159.31-92Z" style="fill:#455a64"></path><path d="M151.07,278.23l.41,6-4.07-2.35-.41-6c0-.08,0-.16,0-.23a3.55,3.55,0,0,1,0-.46,4.37,4.37,0,0,1,.09-.5,5.27,5.27,0,0,1,.34-1l4.06,2.35A4.64,4.64,0,0,0,151.07,278.23Z" style="fill:#263238"></path></g></g></svg>